<svg width="311" height="548" viewBox="0 0 311 548" fill="none" xmlns="http://www.w3.org/2000/svg">
<rect width="311" height="548" rx="24" fill="#5468E7"/>
<mask id="mask0_1_4891" style="mask-type:alpha" maskUnits="userSpaceOnUse" x="0" y="0" width="311" height="548">
<rect width="311" height="548" rx="24" fill="white"/>
</mask>
<g mask="url(#mask0_1_4891)">
<path d="M103.644 0.0165644C82.1187 4.66012 64.9382 22.1463 58.5311 42.9108C51.8964 64.4219 58.6022 86.9997 75.164 102.075C91.1569 116.617 114.986 123.48 135.68 115.529C155.036 108.091 171.854 86.8788 162.51 65.6735C154.616 47.7677 131.221 37.3001 112.945 45.1152C94.6698 52.9303 85.788 74.8041 89.1302 93.6912C93.3542 117.521 116.508 130.669 137.678 137.332C163.32 145.453 193.194 146.648 214.2 165.336C230.762 180.07 238.883 203.025 237.233 224.948C236.479 235.934 232.996 246.559 227.1 255.86C220.579 265.951 209.45 274.591 197.176 275.771C183.523 277.087 173.71 266.612 172.721 253.464C171.648 239.007 180.408 226.37 188.736 215.398C204.643 194.449 225.002 173.592 251.427 167.135C274.83 161.446 302.976 167.889 315.384 190.168C329.45 215.426 319.438 245.57 304.526 267.857C296.433 279.945 286.812 290.975 277.34 301.99C267.712 313.19 257.998 324.333 248.896 335.988C231.672 358.089 216.647 382.345 210.168 409.894C204.088 435.736 205.902 463.526 220.245 486.417C233.571 507.75 255.089 522.804 277.973 532.454C306.56 544.543 337.635 549.293 367.928 555.081L465.095 573.656L511.687 582.559C512.689 582.751 513.109 581.215 512.113 581.016L416.113 562.662C384.881 556.696 353.429 551.412 322.41 544.415C294.798 538.178 267.1 529.097 244.75 511.128C234.851 503.17 226.147 493.62 219.825 482.555C213.039 470.469 209.183 456.958 208.568 443.11C205.475 382.872 250.09 336.713 286.165 294.125C303.345 273.83 321.009 251.231 323.37 223.725C324.401 211.835 322.517 199.405 316.551 188.945C311.054 179.506 302.558 172.176 292.416 168.123C270.528 159.128 245.873 164.013 226.403 176.408C215.523 183.355 206.044 192.301 197.582 201.972C188.942 211.857 179.904 222.715 174.656 234.84C170.19 245.165 169.173 257.887 175.758 267.601C181.646 276.276 192.071 279.021 201.934 276.539C223.416 271.135 235.825 249.382 238.449 228.717C241.045 208.223 235.05 186.498 221.653 170.683C204.586 150.566 177.948 145.737 153.592 139.949C130.524 134.473 102.2 125.236 92.7924 100.923C85.276 81.5028 93.34 55.7677 112.896 46.8788C132.65 37.8832 159.573 51.8566 163.185 73.3961C167.523 99.2094 139.32 117.556 116.529 117.293C93.7382 117.03 71.452 102.36 62.0582 81.581C52.2947 59.949 59.1498 34.349 75.3133 17.7517C83.0885 9.64656 93.086 4.02062 104.049 1.58101C105.066 1.36056 104.625 -0.175436 103.644 0.0165644Z" fill="url(#paint0_linear_1_4891)"/>
</g>
<defs>
<linearGradient id="paint0_linear_1_4891" x1="56" y1="0" x2="56" y2="582.575" gradientUnits="userSpaceOnUse">
<stop stop-color="#3A8FFF"/>
<stop offset="1" stop-color="#0837AE"/>
</linearGradient>
</defs>
</svg>
