<svg width="40" height="40" viewBox="0 0 40 40" fill="none" xmlns="http://www.w3.org/2000/svg">
<circle cx="20" cy="20" r="20" fill="#5468E7"/>
<path fill-rule="evenodd" clip-rule="evenodd" d="M26 19.5335C26.0006 16.5904 23.7103 14.162 20.7885 14.0077C17.8666 13.8535 15.3362 16.0273 15.0305 18.9543C14.7248 21.8813 16.7509 24.5367 19.6408 24.9965V21.1323H18.2446V19.5335H19.6408V18.3144C19.58 17.7382 19.7768 17.1646 20.178 16.7489C20.5792 16.3331 21.1434 16.1182 21.7177 16.1623C22.1302 16.1678 22.5418 16.2038 22.949 16.2702V17.6332H22.256C22.0169 17.6018 21.7765 17.6813 21.6027 17.8494C21.4289 18.0176 21.3404 18.256 21.3623 18.4976V19.5349H22.8878L22.6437 21.1337H21.3595V25C24.0328 24.5746 26.0011 22.256 26 19.5335Z" fill="white"/>
</svg>
