<svg width="42" height="42" viewBox="0 0 42 42" fill="none" xmlns="http://www.w3.org/2000/svg">
<circle opacity="0.2" cx="21" cy="21" r="20" stroke="#D8D8D8"/>
<path fill-rule="evenodd" clip-rule="evenodd" d="M27 20.5335C27.0006 17.5904 24.7103 15.162 21.7885 15.0077C18.8666 14.8535 16.3362 17.0273 16.0305 19.9543C15.7248 22.8813 17.7509 25.5367 20.6408 25.9965V22.1323H19.2446V20.5335H20.6408V19.3144C20.58 18.7382 20.7768 18.1646 21.178 17.7489C21.5792 17.3331 22.1434 17.1182 22.7177 17.1623C23.1302 17.1678 23.5418 17.2038 23.949 17.2702V18.6332H23.256C23.0169 18.6018 22.7765 18.6813 22.6027 18.8494C22.4289 19.0176 22.3404 19.256 22.3623 19.4976V20.5349H23.8878L23.6437 22.1337H22.3595V26C25.0328 25.5746 27.0011 23.256 27 20.5335Z" fill="white"/>
</svg>
