<svg width="40" height="40" viewBox="0 0 40 40" fill="none" xmlns="http://www.w3.org/2000/svg">
<g clip-path="url(#clip0_1_5011)">
<circle opacity="0.2" cx="20" cy="20" r="20" stroke="#D8D8D8"/>
<ellipse cx="22.5615" cy="16.7676" rx="0.676782" ry="0.682667" fill="#ADADAD"/>
<path fill-rule="evenodd" clip-rule="evenodd" d="M19.6402 22.5333C18.085 22.5333 16.8203 21.2576 16.8203 19.6889C16.8203 18.1202 18.085 16.8444 19.6402 16.8444C21.1954 16.8444 22.4602 18.1202 22.4602 19.6889C22.4602 21.2576 21.1954 22.5333 19.6402 22.5333ZM19.6402 18.2666C18.8626 18.2666 18.2303 18.9045 18.2303 19.6889C18.2303 20.4732 18.8626 21.1111 19.6402 21.1111C20.4178 21.1111 21.0502 20.4732 21.0502 19.6889C21.0502 18.9045 20.4178 18.2666 19.6402 18.2666Z" fill="#ADADAD"/>
<path fill-rule="evenodd" clip-rule="evenodd" d="M22.4598 25.3778H16.8199C15.3705 25.3778 14 23.9954 14 22.5333V16.8444C14 15.3824 15.3705 14 16.8199 14H22.4598C23.9092 14 25.2797 15.3824 25.2797 16.8444V22.5333C25.2797 23.9954 23.9092 25.3778 22.4598 25.3778ZM16.8199 15.4222C16.1608 15.4222 15.41 16.1796 15.41 16.8444V22.5333C15.41 23.211 16.1481 23.9556 16.8199 23.9556H22.4598C23.1189 23.9556 23.8697 23.1982 23.8697 22.5333V16.8444C23.8697 16.1796 23.1189 15.4222 22.4598 15.4222H16.8199Z" fill="#ADADAD"/>
</g>
<defs>
<clipPath id="clip0_1_5011">
<rect width="40" height="40" fill="white"/>
</clipPath>
</defs>
</svg>
