<svg width="40" height="40" viewBox="0 0 40 40" fill="none" xmlns="http://www.w3.org/2000/svg">
<g clip-path="url(#clip0_1_5005)">
<circle opacity="0.2" cx="20" cy="20" r="20" stroke="#D8D8D8"/>
<path fill-rule="evenodd" clip-rule="evenodd" d="M25.1387 17.9911C24.9977 17.0667 24.5747 16.4267 23.5877 16.2844C22.0368 16 19.6398 16 19.6398 16C19.6398 16 17.2429 16 15.692 16.2844C14.705 16.4267 14.2115 17.0667 14.141 17.9911C14 18.9156 14 20.2667 14 20.2667C14 20.2667 14 21.6178 14.141 22.5422C14.282 23.4667 14.705 24.1067 15.692 24.2489C17.2429 24.5333 19.6398 24.5333 19.6398 24.5333C19.6398 24.5333 22.0368 24.5333 23.5877 24.2489C24.5747 24.0356 24.9977 23.4667 25.1387 22.5422C25.2797 21.6178 25.2797 20.2667 25.2797 20.2667C25.2797 20.2667 25.2797 18.9156 25.1387 17.9911ZM18.2299 22.4V18.1333L21.7548 20.2667L18.2299 22.4Z" fill="#ADADAD"/>
</g>
<defs>
<clipPath id="clip0_1_5005">
<rect width="40" height="40" fill="white"/>
</clipPath>
</defs>
</svg>
