<svg width="199" height="568" viewBox="0 0 199 568" fill="none" xmlns="http://www.w3.org/2000/svg">
<path d="M47.644 -15.2889C26.1187 -10.6453 8.93822 6.84089 2.53111 27.6053C-4.10356 49.1164 2.60222 71.6942 19.164 86.7698C35.1569 101.312 58.9862 108.174 79.6796 100.224C99.036 92.7858 115.854 71.5733 106.51 50.368C98.6164 32.4622 75.2209 21.9947 56.9453 29.8098C38.6698 37.6249 29.788 59.4987 33.1302 78.3858C37.3542 102.215 60.508 115.364 81.6778 122.027C107.32 130.148 137.194 131.342 158.2 150.03C174.762 164.764 182.883 187.719 181.233 209.643C180.479 220.629 176.996 231.254 171.1 240.555C164.579 250.645 153.45 259.285 141.176 260.466C127.523 261.781 117.71 251.307 116.721 238.158C115.648 223.701 124.408 211.065 132.736 200.092C148.643 179.143 169.002 158.286 195.427 151.829C218.83 146.14 246.976 152.583 259.384 174.862C273.45 200.121 263.438 230.265 248.526 252.551C240.433 264.64 230.812 275.669 221.34 286.684C211.712 297.884 201.998 309.028 192.896 320.683C175.672 342.784 160.647 367.04 154.168 394.588C148.088 420.43 149.902 448.22 164.245 471.111C177.571 492.444 199.089 507.499 221.973 517.148C250.56 529.237 281.635 533.988 311.928 539.776L409.095 558.35L455.687 567.253C456.689 567.445 457.109 565.909 456.113 565.71L360.113 547.356C328.881 541.39 297.429 536.107 266.41 529.109C238.798 522.873 211.1 513.792 188.75 495.822C178.851 487.865 170.147 478.315 163.825 467.25C157.039 455.163 153.183 441.652 152.568 427.804C149.475 367.566 194.09 321.408 230.165 278.82C247.345 258.524 265.009 235.925 267.37 208.42C268.401 196.53 266.517 184.1 260.551 173.639C255.054 164.2 246.558 156.871 236.416 152.818C214.528 143.822 189.873 148.708 170.403 161.102C159.523 168.05 150.044 176.996 141.582 186.667C132.942 196.551 123.904 207.41 118.656 219.534C114.19 229.86 113.173 242.581 119.758 252.295C125.646 260.971 136.071 263.716 145.934 261.234C167.416 255.829 179.825 234.076 182.449 213.412C185.045 192.917 179.05 171.193 165.653 155.378C148.586 135.26 121.948 130.432 97.5924 124.644C74.524 119.168 46.2004 109.931 36.7924 85.6178C29.276 66.1973 37.34 40.4622 56.8956 31.5733C76.6502 22.5778 103.573 36.5511 107.185 58.0907C111.523 83.904 83.3204 102.251 60.5293 101.988C37.7382 101.724 15.452 87.0542 6.05822 66.2756C-3.70533 44.6436 3.14978 19.0436 19.3133 2.44622C27.0885 -5.65889 37.086 -11.2848 48.0493 -13.7244C49.0662 -13.9449 48.6253 -15.4809 47.644 -15.2889Z" fill="#D1ECFD"/>
</svg>
